# xmcd
#
# Track frame offsets:
#  150
#  17622
#  35523
#  50126
#  62370
#  79438
#  92925
#  110571
#  123534
#  136486
#
# Disc length: 1990 seconds
#
# Revision: 0
# Processed by: cddbd v1.5.2PL0 Copyright (c) Steve Scherf et al.
# Submitted via: AltoMP3_Maker 3.0
#
DISCID=8c07c40a
DTITLE=Al Green - Gets Next To You
DYEAR=1900
DGENRE=
TTITLE0=I Can't Get Next To You
TTITLE1=Are You Lonely For Me, Baby?
TTITLE2=God Is Standing By
TTITLE3=Tired Of Being Alone
TTITLE4=I'm A Ram
TTITLE5=Driving Wheel
TTITLE6=Light My Fire
TTITLE7=You Say It
TTITLE8=Right Now, Right Now
TTITLE9=All Because
EXTD=
EXTT0=
EXTT1=
EXTT2=
EXTT3=
EXTT4=
EXTT5=
EXTT6=
EXTT7=
EXTT8=
EXTT9=
PLAYORDER=
